<svg width="51" height="36" viewBox="0 0 51 36" fill="none" xmlns="http://www.w3.org/2000/svg">
<path fill-rule="evenodd" clip-rule="evenodd" d="M37.5716 0C33.0569 0 29.0664 2.24437 26.654 5.67717L27.1964 2.61876C27.2281 2.44021 27.1494 2.18869 27.0207 2.06102L27.0054 2.04566C26.8777 1.91702 26.6243 1.81143 26.4419 1.81143H21.7122C21.5308 1.81143 21.2773 1.91702 21.1487 2.04566L21.1333 2.06102C21.0057 2.18869 20.83 2.42484 20.7446 2.58516L20.2857 3.44624C20.1686 3.64783 20.0227 3.73711 19.8902 3.73711C19.6665 3.73711 19.4189 3.43855 19.4189 3.43855L19.3382 3.34928C18.7095 2.66868 17.0401 1.33146 13.6294 1.33146C5.49567 1.33146 0.778455 8.83926 0.778455 15.7212C0.778455 21.7372 4.72579 26.3584 10.2119 26.3584C13.4287 26.3584 15.1874 24.8705 15.7922 24.2341C16.2193 23.7694 16.5246 23.9691 16.4449 24.3502C15.6597 28.4022 13.5247 30.2078 10.2609 30.2078C8.47634 30.2078 7.56054 29.7941 7.20632 28.9666C6.89241 28.3379 6.60346 28.2831 6.30108 28.2831H1.197C0.294638 28.2831 0.404072 29.077 0.404072 29.077C0.596063 33.2336 4.625 35.9839 10.2609 35.9839C17.4807 35.9839 21.956 32.1335 23.4967 23.4699L24.6852 16.7656C26.199 22.4658 31.3943 26.6666 37.5716 26.6666C44.9345 26.6666 50.9054 20.6966 50.9054 13.3328C50.9054 5.96995 44.9345 0 37.5716 0ZM11.9446 20.5824C8.81616 20.5824 7.61334 18.4638 7.61334 15.7212C7.61334 11.2449 9.82699 7.10654 14.3033 7.10654C17.3838 7.10654 18.6355 8.98325 18.6355 11.6788C18.6355 16.1061 16.5169 20.5824 11.9446 20.5824ZM46.5117 12.9728C46.4733 13.1821 46.4416 13.3914 46.4099 13.6006C46.3898 13.7389 46.3686 13.8761 46.3466 14.0134C46.2362 14.695 45.8484 15.0454 45.1581 15.0876C45.114 15.0895 45.0698 15.0905 45.0247 15.0905H44.9623L44.9047 15.0895H39.5789C39.0231 15.102 38.8858 15.8133 38.88 15.8421L38.8589 15.9113L38.8032 16.2242C38.7504 16.5266 38.6967 16.8299 38.6439 17.1294L38.4519 18.2363H38.4529C38.2877 19.1905 38.1226 20.1446 37.9508 21.0988C37.8241 21.8082 37.4238 22.1413 36.6923 22.1481L36.651 22.149C36.4744 22.15 36.2968 22.1519 36.1192 22.1519C35.8235 22.1519 35.5807 22.1471 35.356 22.1356C34.9653 22.1145 34.7542 21.9484 34.6457 21.8131C34.5362 21.6758 34.4191 21.4291 34.4854 21.0326C34.5574 20.6112 34.6322 20.1898 34.7071 19.7693L34.8348 19.0455L34.9433 18.4273H34.9423L35.2668 16.5707L35.429 15.6377C35.4328 15.5349 35.4261 15.3151 35.3128 15.1932C35.2514 15.126 35.1583 15.0924 35.0345 15.0895H29.7509L29.6933 15.0905H29.6309C29.5944 15.0905 29.5579 15.0905 29.5224 15.0886C29.1758 15.0713 28.9291 14.9695 28.7698 14.7804C28.6114 14.5923 28.5548 14.3369 28.596 13.999C28.6584 13.4902 28.7285 13.0266 28.8091 12.584C28.932 11.9063 29.3467 11.5761 30.0772 11.5742C30.7041 11.5723 31.33 11.5713 31.9559 11.5713L32.8947 11.5723H33.8316H35.5288C36.123 11.5723 36.2594 10.8638 36.2651 10.834L36.3419 10.4059L36.4033 10.0603L36.6357 8.7471C36.8277 7.66427 37.0196 6.58145 37.2193 5.49958C37.3355 4.86121 37.7252 4.53099 38.3761 4.51947C38.6045 4.51659 38.832 4.51371 39.0595 4.51371C39.2995 4.51371 39.5405 4.51659 39.7814 4.52043C40.0752 4.52714 40.3123 4.6241 40.4697 4.80073C40.6195 4.96872 40.6847 5.19911 40.6588 5.46694C40.6166 5.90564 40.5369 6.34433 40.4601 6.76767L40.3968 7.11806C40.1875 8.32281 39.9753 9.52851 39.7632 10.7352L39.7344 10.906C39.7171 11.0078 39.7008 11.3044 39.8313 11.459C39.8957 11.5358 39.9955 11.5723 40.1376 11.5723H45.3434C45.6957 11.5723 46.1315 11.6097 46.3734 11.8986C46.6153 12.1885 46.5741 12.6253 46.5117 12.9728Z" fill="black"/>
</svg>
